<svg width="181" height="193" viewBox="0 0 181 193" fill="none" xmlns="http://www.w3.org/2000/svg">
<circle cx="56.3242" cy="104.04" r="27.5" transform="rotate(150.274 56.3242 104.04)" fill="#D0F6FF"/>
<circle cx="78.4981" cy="111.992" r="33" transform="rotate(150.274 78.4981 111.992)" stroke="#21B7E2" stroke-width="4"/>
<path d="M84.8382 92.8934C94.0536 94.2562 100.419 102.832 99.0566 112.047" stroke="#21B7E2" stroke-width="4" stroke-linecap="round"/>
<circle cx="128.556" cy="81.6814" r="13.5" transform="rotate(150.274 128.556 81.6814)" fill="#D0F6FF"/>
<circle cx="67.0489" cy="38.4972" r="13.5" transform="rotate(150.274 67.0489 38.4972)" fill="#D0F6FF"/>
<circle cx="136.802" cy="89.0642" r="15" transform="rotate(150.274 136.802 89.0642)" stroke="#21B7E2" stroke-width="4"/>
<circle cx="96.4409" cy="51.6545" r="10.5" transform="rotate(150.274 96.4409 51.6545)" stroke="#21B7E2" stroke-width="4"/>
<circle cx="146.052" cy="137.054" r="10.5" transform="rotate(150.274 146.052 137.054)" stroke="#21B7E2" stroke-width="4"/>
<path d="M132.339 81.2486C135.697 79.3316 139.75 80.1104 141.393 82.988" stroke="#21B7E2" stroke-width="4" stroke-linecap="round"/>
</svg>
